<svg xmlns="http://www.w3.org/2000/svg" viewBox="0 0 512 512" width="512" height="512" role="img" aria-label="Marine Expert Pro">
  <defs>
    <linearGradient id="bg" x1="0" y1="0" x2="1" y2="1">
      <stop offset="0" stop-color="#0f3a7d"/>
      <stop offset="0.55" stop-color="#0b2a5b"/>
      <stop offset="1" stop-color="#071c3f"/>
    </linearGradient>
    <linearGradient id="gold" x1="0" y1="0" x2="0" y2="1">
      <stop offset="0" stop-color="#fcd34d"/>
      <stop offset="1" stop-color="#d97706"/>
    </linearGradient>
  </defs>

  <rect width="512" height="512" rx="112" fill="url(#bg)"/>

  <!-- Hafif dalga dokusu -->
  <path d="M0 406 Q64 386 128 406 T256 406 T384 406 T512 406 V512 H0 Z" fill="#ffffff" opacity="0.05"/>
  <path d="M0 440 Q64 422 128 440 T256 440 T384 440 T512 440 V512 H0 Z" fill="#ffffff" opacity="0.07"/>

  <!-- Dümen simidi -->
  <g transform="translate(256 256)">
    <g stroke="#f8fafc" stroke-width="17" stroke-linecap="round">
      <line x1="0" y1="-118" x2="0" y2="118" transform="rotate(0)"/>
      <line x1="0" y1="-118" x2="0" y2="118" transform="rotate(45)"/>
      <line x1="0" y1="-118" x2="0" y2="118" transform="rotate(90)"/>
      <line x1="0" y1="-118" x2="0" y2="118" transform="rotate(135)"/>
    </g>
    <g fill="url(#gold)">
      <circle cx="0" cy="-165" r="21" transform="rotate(0)"/>
      <circle cx="0" cy="-165" r="21" transform="rotate(45)"/>
      <circle cx="0" cy="-165" r="21" transform="rotate(90)"/>
      <circle cx="0" cy="-165" r="21" transform="rotate(135)"/>
      <circle cx="0" cy="-165" r="21" transform="rotate(180)"/>
      <circle cx="0" cy="-165" r="21" transform="rotate(225)"/>
      <circle cx="0" cy="-165" r="21" transform="rotate(270)"/>
      <circle cx="0" cy="-165" r="21" transform="rotate(315)"/>
    </g>
    <g stroke="#f8fafc" stroke-width="15">
      <line x1="0" y1="-118" x2="0" y2="-146" transform="rotate(0)"/>
      <line x1="0" y1="-118" x2="0" y2="-146" transform="rotate(45)"/>
      <line x1="0" y1="-118" x2="0" y2="-146" transform="rotate(90)"/>
      <line x1="0" y1="-118" x2="0" y2="-146" transform="rotate(135)"/>
      <line x1="0" y1="-118" x2="0" y2="-146" transform="rotate(180)"/>
      <line x1="0" y1="-118" x2="0" y2="-146" transform="rotate(225)"/>
      <line x1="0" y1="-118" x2="0" y2="-146" transform="rotate(270)"/>
      <line x1="0" y1="-118" x2="0" y2="-146" transform="rotate(315)"/>
    </g>
    <circle r="118" fill="none" stroke="#f8fafc" stroke-width="26"/>
    <circle r="118" fill="none" stroke="#0b2a5b" stroke-width="3" opacity="0.35"/>
    <circle r="43" fill="#f8fafc"/>
    <circle r="26" fill="url(#gold)"/>
    <circle r="10" fill="#0b2a5b"/>
  </g>
</svg>
